<?xml version="1.0" encoding="UTF-8" standalone="no"?>
<svg
   xmlns:dc="http://purl.org/dc/elements/1.1/"
   xmlns:cc="http://creativecommons.org/ns#"
   xmlns:rdf="http://www.w3.org/1999/02/22-rdf-syntax-ns#"
   xmlns:svg="http://www.w3.org/2000/svg"
   xmlns="http://www.w3.org/2000/svg"
   id="svg1077"
   version="1.1"
   viewBox="0 0 84.629562 20.557177"
   height="20.557177mm"
   width="84.629562mm">
  <defs
     id="defs1071" />
  <metadata
     id="metadata1074">
    <rdf:RDF>
      <cc:Work
         rdf:about="">
        <dc:format>image/svg+xml</dc:format>
        <dc:type
           rdf:resource="http://purl.org/dc/dcmitype/StillImage" />
        <dc:title></dc:title>
      </cc:Work>
    </rdf:RDF>
  </metadata>
  <g
     transform="translate(-93.000693,-74.298794)"
     id="layer1">
    <g
       transform="matrix(0.28513728,0,0,-0.28513728,-97.84856,184.91333)"
       id="g1042">
      <path
         d="m 740.1303,358.05081 c -0.237,2.26699 -0.734,4.48499 -1.442,6.62799 3.132,-10.203 1.234,-20.977 -5.245,-30.308 -3.063,-4.45699 -6.685,-7.521 -11.142,-9.749 -5.015,-2.786 -10.307,-3.624 -15.88,-3.624 -4.458,0.28 -8.914,1.115 -13.093,3.624 -2.509,1.672 -4.458,3.344 -6.686,5.29201 -8.915,8.914 -10.307,24.79399 -1.393,33.98799 -8.636,-10.03 -5.851,-25.90799 4.458,-33.98799 0.834,-0.55701 1.393,-0.83501 1.948,-1.392 9.195,-6.12901 20.058,-5.85001 29.252,-0.83801 7.523,4.459 12.815,11.14401 14.766,19.781 2.505,10.308 -0.279,20.05801 -6.687,28.137 -10.586,12.815 -29.53,15.88 -43.737,8.079 9.192,4.736 20.337,5.293 30.085,1.392 9.473,-3.899 16.717,-11.7 19.504,-21.729 1.894,-7.307 1.421,-14.61 -2.182,-21.406 -0.126,-0.222 -3.593,-6.283 -6.962,-9.421 -2.345,-2.10199 -5.028,-3.798 -8.128,-4.833 -0.558,-0.276 -1.116,-0.556 -1.672,-0.834 -10.867,-3.621 -23.124,0.558 -29.252,10.585 -3.343,5.851 -4.457,12.81501 -1.393,18.94501 -2.787,-6.96501 0,-14.20801 4.179,-19.78001 2.785,-3.064 5.848,-5.292 9.751,-6.68599 3.341,-1.11401 6.963,-1.671 10.586,-1.392 6.129,0.83499 11.698,3.34199 15.879,8.07799 5.014,5.851 7.52,13.094 6.964,20.895 -0.557,7.799 -4.457,14.486 -10.307,19.78 -6.686,5.57 -15.323,8.077 -23.96,7.241 -10.028,-1.114 -19.222,-6.685 -25.072,-15.04299 7.521,10.30699 19.78,16.71599 32.873,14.76599 4.736,-0.837 8.637,-1.951 12.816,-4.73599 3.9,-2.78501 6.964,-5.85001 9.472,-10.03 5.57,-8.91301 5.013,-19.77901 -0.279,-28.41701 -2.787,-4.17799 -6.688,-7.24 -11.143,-9.192 -9.196,-3.898 -20.338,-1.114 -25.908,7.521 -3.623,5.573 -3.623,12.817 0,18.11 -3.903,-7.24499 -1.116,-16.439 5.57,-21.173 6.13,-4.179 13.93,-4.458 20.338,-1.394 5.85,3.06601 10.026,8.08 11.422,14.766 1.671,8.079 -0.279,16.157 -5.572,22.287 -6.129,6.965 -15.323,10.029 -24.517,9.193 -0.556,0 -1.392,-0.558 -1.949,-0.558 -17.829,-2.785 -28.972,-21.73099 -25.629,-38.723 -1.951,10.03 1.112,20.616 7.8,28.418 4.458,4.733 10.028,8.356 16.713,9.749 11.702,2.507 23.682,-2.229 29.809,-12.53699 4.46,-7.80001 4.18,-16.99301 -0.835,-24.51501 -3.065,-4.17999 -6.964,-6.408 -11.699,-7.522 -6.13,-1.393 -13.372,0.836 -15.602,6.686 2.785,-3.901 7.8,-5.85 12.537,-5.572 10.027,0.55701 16.995,10.585 16.436,20.057 -0.558,7.245 -4.737,13.373 -10.863,17.553 -3.903,2.508 -8.36,3.621 -12.818,3.899 -4.456,0 -8.635,-0.834 -12.813,-3.065 -3.345,-1.949 -6.129,-3.899 -8.638,-6.685 -3.063,-3.622 -5.293,-7.799 -6.407,-12.536 -0.837,-3.9 -1.114,-7.522 -0.557,-11.422 1.392,-7.801 5.015,-14.48699 10.588,-19.779 4.177,-3.624 8.635,-6.129 13.927,-7.52199 1.393,-0.28101 2.509,-0.55701 3.622,-0.83601 0.976,-0.13299 1.95,-0.231 2.927,-0.294 -0.048,0.007 -0.093,0.011 -0.141,0.016 -4.735,0.557 -9.473,1.669 -13.649,4.178 -1.116,0.834 -1.949,1.392 -3.067,1.949 -2.227,1.394 -3.898,3.064 -5.571,5.015 -0.837,1.115 -1.672,1.951 -2.508,3.065 -7.521,10.863 -7.799,24.515 0,35.379 4.181,5.851 9.753,9.472 16.716,10.587 8.916,1.672 18.389,-1.671 22.843,-9.75 -4.179,6.407 -11.978,9.193 -19.222,8.915 -10.028,-0.556 -18.666,-7.523 -21.728,-16.992 -1.115,-3.902 -1.671,-7.802 -1.393,-11.981 0.479,-5.759 2.817,-11.101 6.481,-15.499 0,0 2.355,-2.891 4.944,-4.878 0.343,-0.319 0.709,-0.595 1.112,-0.797 0.082,-0.046 0.168,-0.092 0.251,-0.14 0.209,-0.125 0.418,-0.238 0.623,-0.341 4.201,-2.274 8.645,-4.012 13.332,-4.532 6.129,-0.557 12.259,0.557 17.831,3.343 0.835,0.558 1.671,0.837 2.506,1.394 11.144,7.521 17.274,20.057 15.88,33.15001"
         style="fill:#52536b;fill-opacity:1;fill-rule:nonzero;stroke:none;stroke-width:0.99999994"
         id="path648" />
      <path
         d="m 709.4848,320.4336 c 0,-2.539 -2.058,-4.595 -4.595,-4.595 -2.539,0 -4.594,2.056 -4.594,4.595 0,2.535 2.055,4.593 4.594,4.593 2.537,0 4.595,-2.058 4.595,-4.593"
         style="fill:#5ab9c1;fill-opacity:1;fill-rule:nonzero;stroke:none;stroke-width:0.99999994"
         id="path660" />
      <path
         d="m 678.5121,349.30911 c 0,-2.536 -2.058,-4.59401 -4.595,-4.59401 -2.539,0 -4.593,2.05801 -4.593,4.59401 0,2.538 2.054,4.594 4.593,4.594 2.537,0 4.595,-2.056 4.595,-4.594"
         style="fill:#5ab9c1;fill-opacity:1;fill-rule:nonzero;stroke:none;stroke-width:0.99999994"
         id="path664" />
      <path
         d="m 705.2494,382.6264 c 0,-2.539 -2.058,-4.595 -4.597,-4.595 -2.535,0 -4.591,2.056 -4.591,4.595 0,2.536 2.056,4.592 4.591,4.592 2.539,0 4.597,-2.056 4.597,-4.592"
         style="fill:#5ab9c1;fill-opacity:1;fill-rule:nonzero;stroke:none;stroke-width:0.99999994"
         id="path668" />
      <path
         d="m 731.1488,340.45701 c 0,-2.537 -2.057,-4.593 -4.595,-4.593 -2.536,0 -4.593,2.056 -4.593,4.593 0,2.536 2.057,4.59299 4.593,4.59299 2.538,0 4.595,-2.05699 4.595,-4.59299"
         style="fill:#5ab9c1;fill-opacity:1;fill-rule:nonzero;stroke:none;stroke-width:0.99999994"
         id="path672" />
      <path
         d="m 732.9672,380.82861 c 0,-2.538 -2.058,-4.595 -4.595,-4.595 -2.536,0 -4.593,2.057 -4.593,4.595 0,2.536 2.057,4.592 4.593,4.592 2.537,0 4.595,-2.056 4.595,-4.592"
         style="fill:#5ab9c1;fill-opacity:1;fill-rule:nonzero;stroke:none;stroke-width:0.99999994"
         id="path676" />
      <path
         d="m 743.186,352.95801 c 0,-1.58 -1.28,-2.86 -2.86,-2.86 -1.579,0 -2.86,1.28 -2.86,2.86 0,1.579 1.281,2.859 2.86,2.859 1.58,0 2.86,-1.28 2.86,-2.859"
         style="fill:#5ab9c1;fill-opacity:1;fill-rule:nonzero;stroke:none;stroke-width:0.99999994"
         id="path680" />
      <path
         d="m 679.6381,375.5278 c 0,-1.582 -1.282,-2.859 -2.86,-2.859 -1.58,0 -2.861,1.277 -2.861,2.859 0,1.57801 1.281,2.85901 2.861,2.85901 1.578,0 2.86,-1.281 2.86,-2.85901"
         style="fill:#5ab9c1;fill-opacity:1;fill-rule:nonzero;stroke:none;stroke-width:0.99999994"
         id="path684" />
      <path
         d="m 685.3549,326.0703 c 0,-1.579 -1.28,-2.858 -2.859,-2.858 -1.58,0 -2.858,1.279 -2.858,2.858 0,1.579 1.278,2.858 2.858,2.858 1.579,0 2.859,-1.279 2.859,-2.858"
         style="fill:#5ab9c1;fill-opacity:1;fill-rule:nonzero;stroke:none;stroke-width:0.99999994"
         id="path688" />
    </g>
    <g
       transform="matrix(0.35277777,0,0,-0.35277777,-147.75895,211.54926)"
       id="g1031">
      <path
         d="m 757.0541,372.95701 c -2.728,0 -5.146,-1.056 -7.256,-3.165 -2.11101,-2.11101 -3.165,-4.53901 -3.165,-7.28301 0,-2.746 0.908,-5.146 2.728,-7.205 l 14.974,14.87201 c -2.127,1.854 -4.553,2.781 -7.281,2.781 m 0.54,-22.85 h -0.463 c -3.26,0 -6.098,1.22599 -8.516,3.67999 -2.41901,2.451 -3.629,5.308 -3.629,8.568 0,3.259 1.20099,6.08 3.602,8.465 2.401,2.385 5.368,3.57701 8.904,3.57701 3.533,0 6.57,-1.407 9.109,-4.221 l -16.16,-15.95401 c 2.23,-1.783 4.374,-2.67499 6.432,-2.67499 2.059,0 3.903,0.47199 5.533,1.41399 1.629,0.94401 2.977,2.205 4.04,3.784 v -2.625 c -2.437,-2.676 -5.386,-4.01299 -8.852,-4.01299"
         style="fill:#52536b;fill-opacity:1;fill-rule:nonzero;stroke:none;stroke-width:0.99999994"
         id="path692" />
      <path
         d="m 785.64301,352.16401 v -1.44 H 769.688 l 13.175,21.71799 h -11.78499 v 1.44101 H 785.795 l -13.225,-21.719 z"
         style="fill:#52536b;fill-opacity:1;fill-rule:nonzero;stroke:none;stroke-width:0.99999994"
         id="path696" />
      <path
         d="m 803.6879,366.50681 c 0.046,0.25 0.063,0.565 0.051,0.942 -0.011,0.378 -0.051,0.692 -0.119,0.944 -0.138,0.503 -0.31,0.904 -0.515,1.201 -0.206,0.296 -0.515,0.572 -0.926,0.823 -0.344,0.207 -0.767,0.36 -1.269,0.46399 -0.504,0.102 -1.047,0.165 -1.63,0.189 -0.584,0.021 -1.185,0.028 -1.801,0.016 -0.618,-0.012 -1.201,-0.016 -1.751,-0.016 -0.069,-0.024 -0.13,-0.041 -0.188,-0.052 -0.058,-0.012 -0.12,-0.018 -0.19,-0.018 -0.228,-0.092 -0.375,-0.227 -0.445,-0.411 -0.092,-0.184 -0.138,-0.429 -0.138,-0.739 v -0.84 -3.258 -0.91 c 0,-0.332 0.058,-0.589 0.173,-0.772 0.091,-0.138 0.227,-0.24 0.41,-0.308 0.185,-0.069 0.391,-0.11 0.618,-0.12 0.229,-0.013 0.476,-0.013 0.739,0 0.262,0.01 0.508,0.016 0.737,0.016 1.212,0 2.322,0.057 3.329,0.17199 1.006,0.114 1.77,0.51401 2.297,1.20101 0.139,0.205 0.253,0.42799 0.345,0.669 0.089,0.24 0.182,0.509 0.273,0.807 m 3.774,5.626 c 0.526,-0.73301 0.911,-1.544 1.15,-2.437 0.24,-0.891 0.324,-1.967 0.258,-3.224 -0.046,-0.504 -0.127,-0.967 -0.242,-1.39 -0.114,-0.423 -0.251,-0.818 -0.412,-1.18301 -0.044,-0.092 -0.084,-0.17799 -0.119,-0.25699 -0.034,-0.081 -0.075,-0.167 -0.12,-0.257 -0.092,-0.16101 -0.178,-0.316 -0.258,-0.465 -0.08,-0.148 -0.176,-0.291 -0.292,-0.42801 -0.457,-0.64099 -1.011,-1.161 -1.663,-1.56199 -0.651,-0.40001 -1.389,-0.737 -2.214,-1.012 -0.25,-0.091 -0.513,-0.148 -0.788,-0.17 -0.275,-0.024 -0.55,-0.07 -0.823,-0.138 -0.138,-0.023 -0.274,-0.035 -0.413,-0.035 -0.137,0 -0.275,-0.01 -0.411,-0.034 h -1.406 -2.882 -0.945 c -0.331,0 -0.588,-0.069 -0.77,-0.205 -0.229,-0.162 -0.345,-0.442 -0.345,-0.841 v -1.184 -4.52801 c 0,-0.276 0.007,-0.573 0.018,-0.894 0.012,-0.31899 -0.04,-0.57 -0.155,-0.753 -0.091,-0.16099 -0.296,-0.28699 -0.616,-0.37899 -0.162,-0.045 -0.332,-0.056 -0.515,-0.033 -0.184,0.023 -0.367,0.033 -0.549,0.033 h -1.991 c -0.251,0 -0.486,0.007 -0.702,0.018 -0.218,0.012 -0.396,0.074 -0.532,0.189 -0.138,0.114 -0.218,0.29199 -0.24,0.531 -0.024,0.24099 -0.036,0.48699 -0.036,0.73899 v 20.51701 c 0,0.31999 -0.005,0.697 -0.016,1.132 -0.013,0.434 0.04,0.74199 0.154,0.92499 0.091,0.138 0.264,0.252 0.516,0.345 0.044,0.022 0.096,0.027 0.154,0.016 0.057,-0.011 0.109,-0.005 0.153,0.017 h 9.917 c 0.205,0 0.411,0.006 0.618,0.017 0.205,0.012 0.398,-0.005 0.581,-0.05 h 0.173 c 0.114,-0.047 0.24,-0.07 0.377,-0.07 0.136,0 0.262,-0.023 0.378,-0.068 0.114,-0.022 0.215,-0.034 0.308,-0.034 0.091,0 0.194,-0.024 0.308,-0.069 0.367,-0.114 0.731,-0.223 1.099,-0.326 0.366,-0.102 0.708,-0.246 1.03,-0.429 0.114,-0.091 0.239,-0.171 0.376,-0.24 0.138,-0.069 0.275,-0.16 0.413,-0.274 0.113,-0.069 0.21,-0.144 0.291,-0.224 0.081,-0.08 0.177,-0.166 0.292,-0.257 l 0.205,-0.205 c 0.274,-0.275 0.504,-0.55 0.686,-0.824"
         style="fill:#52536b;fill-opacity:1;fill-rule:nonzero;stroke:none;stroke-width:0.99999994"
         id="path700" />
      <path
         d="m 821.6313,360.22701 c 0.29899,0.114 0.436,0.30999 0.41299,0.58299 -0.023,0.27501 -0.093,0.537 -0.207,0.79 -0.046,0.091 -0.066,0.177 -0.066,0.257 0,0.08 -0.026,0.166 -0.071,0.25701 -0.297,0.777 -0.57101,1.56699 -0.824,2.36799 -0.25101,0.8 -0.53601,1.601 -0.85701,2.402 -0.045,0.114 -0.091,0.258 -0.13699,0.428 -0.046,0.172 -0.104,0.33201 -0.17201,0.47901 -0.068,0.15 -0.14799,0.282 -0.24099,0.39499 -0.09,0.116 -0.20301,0.17201 -0.342,0.17201 -0.046,-0.045 -0.092,-0.08 -0.138,-0.10301 -0.046,-0.023 -0.09,-0.056 -0.136,-0.102 -0.183,-0.228 -0.315,-0.505 -0.39401,-0.82399 -0.081,-0.321 -0.17899,-0.62901 -0.291,-0.92501 -0.276,-0.642 -0.522,-1.294 -0.73899,-1.958 -0.219,-0.662 -0.451,-1.325 -0.703,-1.988 -0.091,-0.22999 -0.17201,-0.453 -0.24101,-0.669 -0.069,-0.217 -0.13699,-0.453 -0.20499,-0.70399 -0.069,-0.18401 -0.058,-0.38901 0.035,-0.61701 0.112,-0.161 0.302,-0.25299 0.565,-0.276 0.262,-0.022 0.53,-0.033 0.807,-0.033 h 2.606 0.687 c 0.251,0 0.468,0.022 0.651,0.068 m 8.888,-7.855 c 0.022,-0.094 0.061,-0.208 0.12,-0.345 0.055,-0.138 0.101,-0.28 0.137,-0.429 0.033,-0.148 0.04,-0.291 0.017,-0.429 -0.023,-0.135 -0.104,-0.24 -0.241,-0.308 -0.183,-0.114 -0.486,-0.16 -0.909,-0.137 -0.424,0.023 -0.772,0.033 -1.046,0.033 h -1.612 c -0.185,0 -0.35,-0.005 -0.5,-0.016 -0.147,-0.012 -0.291,0.006 -0.427,0.051 -0.254,0.069 -0.435,0.206 -0.55,0.412 -0.114,0.183 -0.199,0.377 -0.257,0.583 -0.057,0.206 -0.131,0.413 -0.223,0.618 -0.115,0.366 -0.234,0.732 -0.36,1.097 -0.126,0.366 -0.258,0.72 -0.395,1.064 -0.068,0.206 -0.13,0.395 -0.188,0.566 -0.058,0.172 -0.121,0.327 -0.189,0.464 -0.069,0.137 -0.171,0.256 -0.308,0.36 -0.139,0.102 -0.321,0.177 -0.551,0.222 -0.113,0 -0.221,0.007 -0.324,0.018 -0.103,0.012 -0.213,0.017 -0.327,0.017 h -5.42 c -0.39,0 -0.808,0.006 -1.252,0.017 -0.446,0.012 -0.796,-0.075 -1.047,-0.257 -0.184,-0.137 -0.309,-0.321 -0.378,-0.549 -0.069,-0.229 -0.149,-0.459 -0.24,-0.687 -0.183,-0.389 -0.338,-0.795 -0.464,-1.217 -0.125,-0.423 -0.268,-0.841 -0.429,-1.252 -0.09,-0.229 -0.175,-0.469 -0.255,-0.721 -0.082,-0.251 -0.211,-0.446 -0.396,-0.583 -0.114,-0.092 -0.279,-0.155 -0.497,-0.189 -0.218,-0.034 -0.457,-0.051 -0.72,-0.051 -0.263,0 -0.532,0.005 -0.806,0.017 -0.275,0.011 -0.515,0.016 -0.72,0.016 -0.299,0 -0.659,-0.005 -1.082,-0.016 -0.424,-0.012 -0.726,0.04 -0.91,0.154 -0.113,0.069 -0.176,0.172 -0.188,0.309 -0.012,0.138 0,0.279 0.035,0.429 0.034,0.148 0.074,0.291 0.119,0.428 0.046,0.139 0.091,0.251 0.138,0.344 0.228,0.526 0.44,1.063 0.635,1.613 0.193,0.548 0.393,1.085 0.6,1.611 0.09,0.184 0.159,0.366 0.206,0.549 0.045,0.184 0.115,0.367 0.206,0.549 0.182,0.481 0.366,0.973 0.548,1.476 0.184,0.503 0.365,0.995 0.549,1.475 0.183,0.458 0.356,0.909 0.515,1.356 0.16,0.445 0.332,0.898 0.515,1.355 0.525,1.257 1.011,2.527 1.458,3.808 0.447,1.28 0.932,2.55 1.458,3.808 0.046,0.115 0.08,0.218 0.103,0.309 0.023,0.091 0.057,0.194 0.104,0.309 0.182,0.481 0.365,0.972 0.547,1.475 0.183,0.503 0.378,0.995 0.584,1.476 0.115,0.251 0.21,0.508 0.291,0.771 0.082,0.264 0.223,0.475 0.429,0.635 0.114,0.068 0.263,0.125 0.446,0.172 0.045,0.023 0.091,0.028 0.139,0.017 0.044,-0.011 0.09,-0.005 0.135,0.016 h 3.019 c 0.252,0 0.51,0.007 0.774,0.018 0.263,0.011 0.473,-0.039 0.636,-0.155 0.25,-0.136 0.416,-0.337 0.496,-0.599 0.079,-0.264 0.177,-0.533 0.29,-0.806 0.161,-0.39 0.309,-0.773 0.448,-1.15 0.136,-0.378 0.286,-0.76 0.444,-1.15 0.047,-0.137 0.093,-0.274 0.139,-0.411 0.045,-0.138 0.091,-0.275 0.137,-0.411 0.182,-0.458 0.354,-0.91 0.514,-1.356 0.16,-0.447 0.33,-0.898 0.515,-1.355 0.457,-1.144 0.886,-2.299 1.286,-3.466 0.401,-1.166 0.842,-2.321 1.321,-3.464 0.045,-0.091 0.075,-0.178 0.086,-0.257 0.01,-0.082 0.04,-0.167 0.086,-0.258 0.136,-0.368 0.276,-0.733 0.412,-1.098 0.138,-0.366 0.274,-0.732 0.412,-1.099 0.09,-0.183 0.159,-0.359 0.206,-0.531 0.045,-0.172 0.102,-0.348 0.172,-0.532 0.295,-0.732 0.57,-1.464 0.823,-2.195 0.251,-0.732 0.525,-1.453 0.822,-2.162 0.046,-0.069 0.07,-0.131 0.07,-0.189 0,-0.057 0.021,-0.12 0.069,-0.187"
         style="fill:#52536b;fill-opacity:1;fill-rule:nonzero;stroke:none;stroke-width:0.99999994"
         id="path704" />
      <path
         d="m 845.13323,360.22701 c 0.298,0.114 0.435,0.30999 0.412,0.58299 -0.022,0.27501 -0.091,0.537 -0.206,0.79 -0.046,0.091 -0.069,0.177 -0.069,0.257 0,0.08 -0.022,0.166 -0.068,0.25701 -0.298,0.777 -0.574,1.56699 -0.823,2.36799 -0.254,0.8 -0.538,1.601 -0.857,2.402 -0.046,0.114 -0.092,0.258 -0.138,0.428 -0.047,0.172 -0.103,0.33201 -0.172,0.47901 -0.068,0.15 -0.149,0.282 -0.24,0.39499 -0.092,0.116 -0.205,0.17201 -0.344,0.17201 -0.046,-0.045 -0.091,-0.08 -0.137,-0.10301 -0.046,-0.023 -0.09,-0.056 -0.136,-0.102 -0.185,-0.228 -0.316,-0.505 -0.395,-0.82399 -0.081,-0.321 -0.178,-0.62901 -0.292,-0.92501 -0.275,-0.642 -0.522,-1.294 -0.737,-1.958 -0.218,-0.662 -0.452,-1.325 -0.705,-1.988 -0.091,-0.22999 -0.17,-0.453 -0.239,-0.669 -0.068,-0.217 -0.137,-0.453 -0.206,-0.70399 -0.069,-0.18401 -0.057,-0.38901 0.035,-0.61701 0.113,-0.161 0.301,-0.25299 0.567,-0.276 0.261,-0.022 0.53,-0.033 0.804,-0.033 h 2.608 0.688 c 0.251,0 0.466,0.022 0.65,0.068 m 8.887,-7.855 c 0.022,-0.094 0.062,-0.208 0.119,-0.345 0.058,-0.138 0.103,-0.28 0.139,-0.429 0.034,-0.148 0.039,-0.291 0.016,-0.429 -0.022,-0.135 -0.102,-0.24 -0.239,-0.308 -0.186,-0.114 -0.486,-0.16 -0.91,-0.137 -0.423,0.023 -0.773,0.033 -1.046,0.033 h -1.613 c -0.183,0 -0.35,-0.005 -0.498,-0.016 -0.15,-0.012 -0.292,0.006 -0.428,0.051 -0.251,0.069 -0.436,0.206 -0.55,0.412 -0.114,0.183 -0.201,0.377 -0.256,0.583 -0.058,0.206 -0.133,0.413 -0.224,0.618 -0.116,0.366 -0.235,0.732 -0.36,1.097 -0.126,0.366 -0.259,0.72 -0.394,1.064 -0.07,0.206 -0.133,0.395 -0.19,0.566 -0.057,0.172 -0.12,0.327 -0.189,0.464 -0.068,0.137 -0.171,0.256 -0.308,0.36 -0.138,0.102 -0.32,0.177 -0.549,0.222 -0.114,0 -0.222,0.007 -0.327,0.018 -0.102,0.012 -0.21,0.017 -0.324,0.017 h -5.421 c -0.39,0 -0.807,0.006 -1.254,0.017 -0.445,0.012 -0.796,-0.075 -1.046,-0.257 -0.182,-0.137 -0.307,-0.321 -0.376,-0.549 -0.07,-0.229 -0.149,-0.459 -0.24,-0.687 -0.186,-0.389 -0.338,-0.795 -0.464,-1.217 -0.127,-0.423 -0.269,-0.841 -0.43,-1.252 -0.09,-0.229 -0.176,-0.469 -0.255,-0.721 -0.082,-0.251 -0.212,-0.446 -0.396,-0.583 -0.116,-0.092 -0.28,-0.155 -0.496,-0.189 -0.219,-0.034 -0.459,-0.051 -0.723,-0.051 -0.263,0 -0.53,0.005 -0.805,0.017 -0.274,0.011 -0.515,0.016 -0.721,0.016 -0.297,0 -0.657,-0.005 -1.08002,-0.016 -0.423,-0.012 -0.728,0.04 -0.91001,0.154 -0.11499,0.069 -0.177,0.172 -0.18799,0.309 -0.013,0.138 0,0.279 0.033,0.429 0.036,0.148 0.075,0.291 0.121,0.428 0.044,0.139 0.091,0.251 0.137,0.344 0.22999,0.526 0.442,1.063 0.63499,1.613 0.19401,0.548 0.39403,1.085 0.60003,1.611 0.091,0.184 0.161,0.366 0.207,0.549 0.044,0.184 0.114,0.367 0.205,0.549 0.184,0.481 0.366,0.973 0.549,1.476 0.183,0.503 0.366,0.995 0.55,1.475 0.182,0.458 0.353,0.909 0.515,1.356 0.159,0.445 0.332,0.898 0.512,1.355 0.527,1.257 1.013,2.527 1.46,3.808 0.446,1.28 0.931,2.55 1.459,3.808 0.045,0.115 0.078,0.218 0.101,0.309 0.023,0.091 0.058,0.194 0.103,0.309 0.183,0.481 0.366,0.972 0.55,1.475 0.182,0.503 0.376,0.995 0.583,1.476 0.114,0.251 0.21,0.508 0.291,0.771 0.081,0.264 0.224,0.475 0.429,0.635 0.114,0.068 0.262,0.125 0.446,0.172 0.045,0.023 0.091,0.028 0.138,0.017 0.045,-0.011 0.09,-0.005 0.136,0.016 h 3.02 c 0.25,0 0.508,0.007 0.771,0.018 0.263,0.011 0.476,-0.039 0.635,-0.155 0.253,-0.136 0.417,-0.337 0.498,-0.599 0.081,-0.264 0.178,-0.533 0.291,-0.806 0.162,-0.39 0.309,-0.773 0.446,-1.15 0.14,-0.378 0.287,-0.76 0.446,-1.15 0.046,-0.137 0.092,-0.274 0.138,-0.411 0.045,-0.138 0.091,-0.275 0.137,-0.411 0.182,-0.458 0.354,-0.91 0.513,-1.356 0.161,-0.447 0.332,-0.898 0.515,-1.355 0.459,-1.144 0.887,-2.299 1.288,-3.466 0.401,-1.166 0.842,-2.321 1.32,-3.464 0.047,-0.091 0.075,-0.178 0.087,-0.257 0.011,-0.082 0.038,-0.167 0.084,-0.258 0.14,-0.368 0.276,-0.733 0.413,-1.098 0.138,-0.366 0.275,-0.732 0.412,-1.099 0.09,-0.183 0.159,-0.359 0.207,-0.531 0.045,-0.172 0.101,-0.348 0.17,-0.532 0.296,-0.732 0.572,-1.464 0.825,-2.195 0.25,-0.732 0.525,-1.453 0.822,-2.162 0.046,-0.069 0.068,-0.131 0.068,-0.189 0,-0.057 0.024,-0.12 0.07,-0.187"
         style="fill:#52536b;fill-opacity:1;fill-rule:nonzero;stroke:none;stroke-width:0.99999994"
         id="path708" />
      <path
         d="m 871.75633,366.98681 c 0.047,0.251 0.052,0.559 0.019,0.927 -0.035,0.365 -0.076,0.638 -0.121,0.823 -0.045,0.091 -0.069,0.171 -0.069,0.239 0,0.07 -0.023,0.138 -0.068,0.206 -0.274,0.708 -0.779,1.223 -1.509,1.544 -0.388,0.18199 -0.837,0.285 -1.339,0.31 -0.503,0.021 -1.028,0.034 -1.578,0.034 h -3.981 c -0.043,-0.047 -0.091,-0.064 -0.136,-0.052 -0.046,0.011 -0.092,0.018 -0.137,0.018 -0.275,-0.069 -0.458,-0.18501 -0.549,-0.34401 -0.116,-0.18399 -0.166,-0.41799 -0.154,-0.70399 0.013,-0.286 0.018,-0.566 0.018,-0.84 v -3.19 -0.824 c 0,-0.27501 0.055,-0.492 0.17,-0.652 0.091,-0.138 0.24,-0.22901 0.446,-0.275 0.206,-0.046 0.433,-0.079 0.686,-0.10401 0.251,-0.021 0.515,-0.027 0.79,-0.016 0.274,0.012 0.514,0.016 0.72,0.016 h 2.024 c 0.161,0 0.332,-0.004 0.515,-0.016 0.183,-0.011 0.343,0.006 0.481,0.052 h 0.446 c 0.181,0.045 0.359,0.068 0.531,0.068 0.172,0 0.336,0.023 0.497,0.07 0.39,0.11301 0.733,0.261 1.03,0.44501 0.295,0.183 0.549,0.423 0.755,0.72 0.137,0.207 0.241,0.43399 0.308,0.687 0.069,0.251 0.138,0.537 0.205,0.858 m 5.662,-15.474 c 0.046,-0.138 0.04,-0.264 -0.017,-0.37701 -0.056,-0.11499 -0.12,-0.195 -0.188,-0.24 -0.138,-0.11499 -0.327,-0.16699 -0.567,-0.15499 -0.24,0.012 -0.486,0.017 -0.737,0.017 h -1.888 c -0.366,0 -0.685,0.017 -0.961,0.051 -0.274,0.035 -0.479,0.166 -0.616,0.395 -0.185,0.297 -0.287,0.664 -0.308,1.098 -0.024,0.434 -0.082,0.846 -0.173,1.234 0,0.093 -0.01,0.179 -0.016,0.259 -0.012,0.079 -0.017,0.154 -0.017,0.223 -0.07,0.274 -0.105,0.566 -0.105,0.875 0,0.309 -0.022,0.587 -0.069,0.841 -0.022,0.067 -0.033,0.171 -0.033,0.307 -0.047,0.252 -0.085,0.509 -0.12,0.773 -0.035,0.262 -0.086,0.519 -0.155,0.771 -0.182,0.527 -0.4,0.996 -0.652,1.407 -0.251,0.412 -0.605,0.721 -1.061,0.926 -0.115,0.047 -0.231,0.079 -0.345,0.104 -0.114,0.022 -0.24,0.057 -0.378,0.103 -0.411,0.137 -0.887,0.205 -1.423,0.205 h -1.596 -2.814 c -0.183,-0.046 -0.342,-0.08 -0.479,-0.103 -0.138,-0.023 -0.253,-0.091 -0.343,-0.205 -0.185,-0.23 -0.263,-0.583 -0.242,-1.065 0.025,-0.48 0.037,-0.914 0.037,-1.303 v -4.391 c 0,-0.182 -0.01,-0.372 -0.018,-0.566 -0.012,-0.194 -0.019,-0.384 -0.019,-0.567 v -0.497 c 0,-0.149 -0.021,-0.28 -0.067,-0.394 -0.068,-0.205 -0.206,-0.343 -0.411,-0.413 -0.116,-0.045 -0.253,-0.068 -0.413,-0.068 h -0.514 -1.545 c -0.365,0 -0.755,-0.005 -1.166,-0.017 -0.411,-0.012 -0.72,0.063 -0.927,0.223 -0.182,0.114 -0.273,0.326 -0.273,0.634 v 0.91001 20.85999 c 0,0.25101 0,0.51501 -0.017,0.789 -0.012,0.27401 0.039,0.49101 0.153,0.651 0.092,0.138 0.263,0.252 0.514,0.345 0.046,0.022 0.099,0.027 0.155,0.016 0.057,-0.011 0.109,-0.005 0.155,0.017 h 11.665 c 0.366,0 0.714,-0.006 1.048,-0.017 0.329,-0.011 0.644,-0.052 0.943,-0.12 0.113,-0.045 0.234,-0.068 0.36,-0.068 0.125,0 0.244,-0.024 0.361,-0.069 0.159,-0.046 0.321,-0.092 0.478,-0.137 0.161,-0.046 0.322,-0.103 0.482,-0.173 0.57,-0.251 1.098,-0.56 1.578,-0.925 0.479,-0.366 0.881,-0.79 1.201,-1.27 0.09,-0.114 0.164,-0.234 0.222,-0.36 0.056,-0.127 0.132,-0.247 0.224,-0.361 0.182,-0.32 0.319,-0.65 0.413,-0.994 0.09,-0.343 0.191,-0.721 0.306,-1.133 0.023,-0.092 0.029,-0.183 0.019,-0.274 -0.013,-0.091 0,-0.184 0.05,-0.275 v -0.308 c 0.046,-0.183 0.057,-0.406 0.035,-0.669 -0.025,-0.264 -0.058,-0.476 -0.104,-0.634 -0.045,-0.184 -0.067,-0.35 -0.067,-0.498 0,-0.15 -0.023,-0.304 -0.07,-0.464 -0.114,-0.343 -0.227,-0.668 -0.341,-0.978 -0.117,-0.307 -0.265,-0.6 -0.448,-0.874 -0.045,-0.069 -0.103,-0.143 -0.171,-0.223 -0.068,-0.081 -0.124,-0.155 -0.172,-0.223 -0.067,-0.092 -0.142,-0.184 -0.224,-0.274 -0.079,-0.092 -0.165,-0.172 -0.256,-0.241 -0.138,-0.115 -0.274,-0.229 -0.411,-0.342 -0.136,-0.115 -0.288,-0.23 -0.445,-0.345 -0.092,-0.067 -0.185,-0.142 -0.277,-0.222 -0.09,-0.081 -0.16,-0.178 -0.206,-0.292 -0.045,-0.137 -0.021,-0.251 0.069,-0.343 0.091,-0.092 0.173,-0.159 0.24,-0.206 0.229,-0.182 0.457,-0.367 0.687,-0.549 0.228,-0.183 0.422,-0.401 0.583,-0.651 0.275,-0.39 0.493,-0.789 0.652,-1.202 0.161,-0.412 0.309,-0.881 0.446,-1.407 0.047,-0.205 0.074,-0.422 0.088,-0.651 0.01,-0.229 0.037,-0.446 0.083,-0.651 0,-0.138 0.01,-0.27 0.018,-0.395 0.012,-0.126 0.017,-0.257 0.017,-0.395 0.023,-0.092 0.028,-0.188 0.018,-0.291 -0.013,-0.103 -0.01,-0.212 0.015,-0.326 0.023,-0.093 0.031,-0.184 0.018,-0.275 -0.011,-0.091 -0.01,-0.195 0.017,-0.308 0.047,-0.23 0.07,-0.469 0.07,-0.722 0,-0.25 0.022,-0.491 0.067,-0.72 l 0.104,-0.618 c 0.046,-0.205 0.091,-0.411 0.137,-0.617 0.046,-0.207 0.093,-0.401 0.137,-0.583"
         style="fill:#52536b;fill-opacity:1;fill-rule:nonzero;stroke:none;stroke-width:0.99999994"
         id="path712" />
      <path
         d="m 889.63223,375.70021 c 4.437,0.07 7.49,-1.24601 9.16,-3.94401 0.23,-0.36699 0.405,-0.74499 0.531,-1.133 0.126,-0.38899 0.247,-0.81199 0.361,-1.27 0.046,-0.183 0.063,-0.39499 0.052,-0.63499 -0.011,-0.239 -0.063,-0.416 -0.154,-0.53201 -0.116,-0.13599 -0.275,-0.222 -0.48,-0.25699 -0.207,-0.033 -0.435,-0.051 -0.688,-0.051 h -2.16 -0.619 c -0.205,0 -0.377,0.023 -0.514,0.068 -0.273,0.114 -0.446,0.298 -0.515,0.55 -0.069,0.251 -0.16,0.502 -0.274,0.754 -0.092,0.228 -0.219,0.469 -0.378,0.721 -0.159,0.252 -0.332,0.445 -0.514,0.583 -0.32,0.229 -0.629,0.423 -0.926,0.584 -0.276,0.114 -0.612,0.21 -1.014,0.291 -0.4,0.08 -0.81,0.132 -1.234,0.154 -0.423,0.022 -0.84,0.012 -1.253,-0.034 -0.41,-0.047 -0.777,-0.138 -1.097,-0.274 -0.527,-0.23 -0.931,-0.498 -1.218,-0.806 -0.287,-0.31 -0.486,-0.773 -0.6,-1.391 -0.046,-0.159 -0.058,-0.337 -0.033,-0.531 0.021,-0.194 0.055,-0.348 0.101,-0.464 0.183,-0.479 0.442,-0.818 0.772,-1.011 0.332,-0.196 0.726,-0.384 1.183,-0.565 0.25,-0.116 0.509,-0.202 0.773,-0.259 0.263,-0.056 0.532,-0.131 0.806,-0.222 0.617,-0.206 1.251,-0.384 1.905,-0.532 0.651,-0.15 1.297,-0.315 1.939,-0.497 0.113,-0.047 0.228,-0.07 0.343,-0.07 0.113,0 0.226,-0.022 0.341,-0.068 0.458,-0.16 0.933,-0.31 1.425,-0.447 0.492,-0.135 0.932,-0.331 1.321,-0.583 0.615,-0.389 1.15,-0.777 1.596,-1.167 0.445,-0.388 0.862,-0.891 1.25,-1.508 0.115,-0.183 0.212,-0.39 0.291,-0.618 0.083,-0.23 0.167,-0.458 0.26,-0.686 0.023,-0.069 0.033,-0.132 0.033,-0.189 0,-0.057 0.011,-0.108 0.035,-0.154 0.092,-0.367 0.137,-0.824 0.137,-1.372 0.046,-0.115 0.046,-0.229 0,-0.344 v -0.618 c -0.045,-0.252 -0.086,-0.492 -0.12,-0.72 -0.034,-0.229 -0.085,-0.459 -0.153,-0.686 -0.139,-0.411 -0.288,-0.79 -0.447,-1.132 -0.161,-0.343 -0.355,-0.675 -0.583,-0.995 -0.092,-0.115 -0.183,-0.212 -0.274,-0.292 -0.094,-0.08 -0.173,-0.177 -0.24,-0.292 -0.117,-0.137 -0.241,-0.268 -0.378,-0.394 -0.138,-0.127 -0.288,-0.246 -0.447,-0.36 -0.114,-0.092 -0.235,-0.184 -0.36,-0.275 -0.126,-0.091 -0.258,-0.184 -0.394,-0.274 -0.388,-0.252 -0.795,-0.457 -1.218,-0.617 -0.424,-0.161 -0.864,-0.321 -1.321,-0.48 -0.321,-0.114 -0.652,-0.189 -0.996,-0.225 -0.343,-0.033 -0.687,-0.085 -1.027,-0.153 -0.162,-0.047 -0.317,-0.064 -0.465,-0.052 -0.149,0.012 -0.292,-0.005 -0.427,-0.051 h -0.277 c -0.046,0 -0.108,0.005 -0.189,0.016 -0.079,0.012 -0.143,0.006 -0.188,-0.016 -0.115,-0.023 -0.309,-0.034 -0.584,-0.034 -0.273,0 -0.468,0.011 -0.582,0.034 h -0.343 c -0.161,0.046 -0.327,0.063 -0.498,0.051 -0.171,-0.012 -0.325,0.005 -0.462,0.052 -0.115,0 -0.219,0.005 -0.309,0.016 -0.092,0.013 -0.195,0.03 -0.309,0.052 -0.274,0.068 -0.561,0.126 -0.857,0.172 -0.298,0.045 -0.573,0.11501 -0.825,0.206 -1.119,0.36501 -2.104,0.829 -2.95,1.38801 -0.847,0.561 -1.557,1.299 -2.127,2.21299 -0.365,0.55001 -0.652,1.202 -0.86,1.95701 -0.044,0.13699 -0.073,0.273 -0.084,0.411 -0.011,0.138 -0.04,0.286 -0.086,0.44599 -0.046,0.18401 -0.079,0.40701 -0.103,0.669 -0.023,0.26301 0.024,0.46301 0.139,0.60101 0.113,0.18199 0.279,0.291 0.497,0.32599 0.217,0.034 0.462,0.051 0.737,0.051 h 2.161 0.584 c 0.205,0 0.39,-0.035 0.549,-0.10299 0.251,-0.114 0.399,-0.304 0.445,-0.56601 0.046,-0.26299 0.125,-0.53199 0.24,-0.807 0.092,-0.273 0.206,-0.52599 0.345,-0.75499 0.136,-0.228 0.285,-0.44501 0.445,-0.65001 0.114,-0.138 0.241,-0.264 0.377,-0.378 0.138,-0.11499 0.274,-0.21699 0.412,-0.308 0.502,-0.321 1.12,-0.58399 1.852,-0.79 0.159,-0.046 0.315,-0.069 0.464,-0.069 0.147,0 0.314,-0.023 0.497,-0.068 h 0.173 c 0.182,-0.047 0.433,-0.07 0.753,-0.07 0.321,0 0.571,0.023 0.756,0.07 0.068,0.023 0.184,0.033 0.342,0.033 0.114,0.022 0.236,0.04 0.363,0.053 0.123,0.01 0.244,0.04 0.359,0.085 0.778,0.206 1.395,0.48 1.853,0.824 0.456,0.342 0.776,0.91401 0.958,1.71601 0.048,0.159 0.053,0.342 0.018,0.548 -0.034,0.20599 -0.074,0.367 -0.119,0.481 -0.228,0.617 -0.618,1.097 -1.166,1.43899 -0.069,0.046 -0.195,0.11501 -0.378,0.207 -0.343,0.207 -0.727,0.372 -1.149,0.497 -0.425,0.126 -0.841,0.25701 -1.252,0.39501 -0.161,0.046 -0.317,0.087 -0.463,0.11899 -0.149,0.036 -0.315,0.075 -0.498,0.12101 -0.367,0.114 -0.739,0.21199 -1.117,0.29199 -0.376,0.081 -0.739,0.177 -1.078,0.292 -0.116,0.045 -0.207,0.069 -0.276,0.069 -0.069,0 -0.149,0.022 -0.239,0.069 -0.185,0.044 -0.349,0.09 -0.499,0.13601 -0.148,0.046 -0.315,0.091 -0.497,0.13699 -0.528,0.183 -1.03,0.37301 -1.509,0.566 -0.48,0.195 -0.927,0.418 -1.34,0.669 -0.525,0.345 -1.005,0.74301 -1.44,1.201 -0.435,0.458 -0.779,0.983 -1.03,1.57901 -0.09,0.20599 -0.159,0.41599 -0.206,0.634 -0.045,0.21699 -0.102,0.452 -0.17,0.704 -0.046,0.20599 -0.081,0.501 -0.103,0.892 -0.022,0.389 -0.013,0.707 0.034,0.96 0.023,0.091 0.032,0.22899 0.032,0.41199 0.071,0.25101 0.127,0.49101 0.175,0.72 0.044,0.229 0.112,0.45801 0.206,0.687 0.342,0.799 0.783,1.48 1.32,2.04 0.537,0.561 1.162,1.07001 1.869,1.528 0.458,0.275 0.95,0.491 1.475,0.651 0.527,0.161 1.088,0.309 1.683,0.446 0.228,0.045 0.449,0.075 0.667,0.086 0.219,0.013 0.44,0.041 0.669,0.086 0.069,0.023 0.178,0.023 0.327,0 0.147,-0.023 0.246,-0.012 0.292,0.034"
         style="fill:#52536b;fill-opacity:1;fill-rule:nonzero;stroke:none;stroke-width:0.99999994"
         id="path716" />
      <path
         d="m 904.76213,375.1855 h 12.832 2.984 c 0.277,0 0.538,-0.011 0.79,-0.033 0.251,-0.024 0.434,-0.116 0.549,-0.275 0.045,-0.069 0.073,-0.149 0.086,-0.241 0.01,-0.091 0.039,-0.182 0.085,-0.274 v -0.376 c 0.024,-0.161 0.028,-0.333 0.018,-0.516 -0.012,-0.183 -0.018,-0.355 -0.018,-0.514 0,-0.184 0.01,-0.361 0.018,-0.532 0.01,-0.172 0.01,-0.338 -0.018,-0.498 -0.022,-0.114 -0.035,-0.286 -0.035,-0.515 -0.067,-0.273 -0.183,-0.457 -0.342,-0.548 -0.137,-0.091 -0.309,-0.138 -0.514,-0.138 h -0.652 -2.368 -6.211 c -0.182,0 -0.393,0.006 -0.634,0.019 -0.24,0.009 -0.479,0.009 -0.72,0 -0.24,-0.013 -0.463,-0.036 -0.668,-0.07 -0.206,-0.033 -0.357,-0.086 -0.448,-0.154 -0.159,-0.115 -0.255,-0.28 -0.292,-0.498 -0.032,-0.218 -0.049,-0.464 -0.049,-0.737 v -1.957 -0.995 c 0.045,-0.183 0.09,-0.336 0.136,-0.462 0.046,-0.126 0.125,-0.223 0.24,-0.292 0.136,-0.091 0.297,-0.143 0.48,-0.154 0.184,-0.011 0.379,-0.018 0.584,-0.018 h 1.851 5.904 c 0.158,0 0.359,0.007 0.599,0.018 0.24,0.011 0.476,0.011 0.704,0 0.227,-0.011 0.441,-0.03 0.633,-0.052 0.195,-0.023 0.338,-0.068 0.429,-0.137 0.114,-0.069 0.195,-0.206 0.241,-0.413 0.044,-0.205 0.074,-0.428 0.085,-0.667 0.013,-0.242 0.013,-0.487 0,-0.739 -0.011,-0.251 -0.017,-0.469 -0.017,-0.65 v -0.482 c 0,-0.16 -0.024,-0.298 -0.068,-0.412 -0.046,-0.182 -0.137,-0.331 -0.274,-0.445 -0.114,-0.069 -0.27,-0.115 -0.465,-0.138 -0.194,-0.022 -0.412,-0.033 -0.65,-0.033 -0.241,0 -0.48,0.005 -0.72,0.017 -0.241,0.011 -0.442,0.016 -0.601,0.016 h -6.691 c -0.272,0 -0.537,0.005 -0.787,0.017 -0.254,0.011 -0.488,0 -0.705,-0.033 -0.218,-0.035 -0.402,-0.103 -0.549,-0.207 -0.149,-0.102 -0.257,-0.257 -0.326,-0.463 -0.023,-0.115 -0.033,-0.234 -0.033,-0.359 v -0.361 -1.304 -1.921 c 0,-0.274 0.017,-0.522 0.049,-0.738 0.037,-0.217 0.133,-0.383 0.292,-0.497 0.07,-0.069 0.156,-0.109 0.258,-0.12 0.104,-0.012 0.212,-0.041 0.326,-0.086 h 0.343 c 0.113,-0.023 0.239,-0.029 0.377,-0.017 0.137,0.011 0.264,0.017 0.378,0.017 h 1.442 6.449 1.82 0.53 c 0.171,0 0.325,-0.035 0.464,-0.103 0.183,-0.069 0.31,-0.195 0.378,-0.378 0.044,-0.115 0.073,-0.252 0.084,-0.412 0.012,-0.16 0.018,-0.331 0.018,-0.515 v -1.577 c 0,-0.275 -0.013,-0.532 -0.036,-0.772 -0.022,-0.241 -0.125,-0.418 -0.307,-0.532 -0.137,-0.114 -0.315,-0.172 -0.531,-0.172 h -0.706 -2.573 -10.155 -2.71 c -0.32,0 -0.601,0.017 -0.84,0.052 -0.24,0.034 -0.418,0.143 -0.532,0.327 -0.092,0.135 -0.137,0.313 -0.137,0.53 v 0.636 2.47 9.33 7.48 2.128 0.618 c 0,0.205 0.045,0.366 0.137,0.48 0.091,0.16 0.262,0.274 0.515,0.344 0.045,0.022 0.091,0.027 0.137,0.016 0.045,-0.011 0.09,-0.005 0.137,0.017"
         style="fill:#52536b;fill-opacity:1;fill-rule:nonzero;stroke:none;stroke-width:0.99999994"
         id="path720" />
    </g>
  </g>
</svg>
