<?xml version="1.0" encoding="UTF-8" standalone="no"?>
<!-- Generator: Adobe Illustrator 17.1.0, SVG Export Plug-In . SVG Version: 6.00 Build 0)  -->

<svg
   xmlns:dc="http://purl.org/dc/elements/1.1/"
   xmlns:cc="http://creativecommons.org/ns#"
   xmlns:rdf="http://www.w3.org/1999/02/22-rdf-syntax-ns#"
   xmlns:svg="http://www.w3.org/2000/svg"
   xmlns="http://www.w3.org/2000/svg"
   xmlns:sodipodi="http://sodipodi.sourceforge.net/DTD/sodipodi-0.dtd"
   xmlns:inkscape="http://www.inkscape.org/namespaces/inkscape"
   version="1.0"
   id="Calque_1"
   x="0px"
   y="0px"
   viewBox="0 0 247.79419 44.060153"
   enable-background="new 0 0 245 45"
   xml:space="preserve"
   sodipodi:docname="logo_horizontal_clean.svg"
   width="247.79419"
   height="44.060154"
   inkscape:version="0.92.3 (2405546, 2018-03-11)"
   inkscape:export-filename="/home/schurter/Images/logos/ezmesure/logo_horizontal_clean.png"
   inkscape:export-xdpi="121.62995"
   inkscape:export-ydpi="121.62995"><metadata
   id="metadata84"><rdf:RDF><cc:Work
       rdf:about=""><dc:format>image/svg+xml</dc:format><dc:type
         rdf:resource="http://purl.org/dc/dcmitype/StillImage" /><dc:title></dc:title></cc:Work></rdf:RDF></metadata><defs
   id="defs82" /><sodipodi:namedview
   pagecolor="#ffffff"
   bordercolor="#666666"
   borderopacity="1"
   objecttolerance="10"
   gridtolerance="10"
   guidetolerance="10"
   inkscape:pageopacity="0"
   inkscape:pageshadow="2"
   inkscape:window-width="1920"
   inkscape:window-height="1051"
   id="namedview80"
   showgrid="false"
   inkscape:pagecheckerboard="false"
   fit-margin-top="2"
   fit-margin-left="2"
   fit-margin-right="2"
   fit-margin-bottom="2"
   inkscape:zoom="5.656854"
   inkscape:cx="99.947677"
   inkscape:cy="31.131642"
   inkscape:window-x="3840"
   inkscape:window-y="0"
   inkscape:window-maximized="1"
   inkscape:current-layer="Calque_1" />

<path
   style="fill:none;stroke:#b2b2b2;stroke-width:0.53883862;stroke-linecap:butt;stroke-linejoin:miter;stroke-miterlimit:4;stroke-dasharray:none;stroke-opacity:1"
   d="m 17.60379,21.99625 9.319176,-7.672902 9.307835,7.672902 -9.307835,7.604156 z"
   id="path979-7"
   inkscape:connector-curvature="0"
   sodipodi:nodetypes="ccccc" />
<g
   id="g77"
   style="fill:#8d2e2e;fill-opacity:1"
   transform="matrix(1.3766376,0,0,1.3766376,-9.0131011,-7.4987992)">
	<g
   id="g27"
   style="fill:#8d2e2e;fill-opacity:1">
		
		<rect
   x="9.8000002"
   y="21.299999"
   width="9.6000004"
   height="0.40000001"
   id="rect23"
   style="fill:#b2b2b2;fill-opacity:1" />
		<rect
   x="32.700001"
   y="21.299999"
   width="9.6000004"
   height="0.40000001"
   id="rect25"
   style="fill:#b2b2b2;fill-opacity:1" />
	</g>
	<g
   id="g33"
   style="fill:#8d2e2e;fill-opacity:1">
		<line
   x1="26.1"
   y1="15.9"
   x2="26.1"
   y2="8.6999998"
   id="line29"
   style="fill:#8d2e2e;fill-opacity:1" />
		<rect
   x="25.9"
   y="8.6999998"
   width="0.40000001"
   height="7.3000002"
   id="rect31"
   style="fill:#b2b2b2;fill-opacity:1" />
	</g>
	<g
   id="g39"
   style="fill:#8d2e2e;fill-opacity:1">
		<line
   x1="26.1"
   y1="34.200001"
   x2="26.1"
   y2="27"
   id="line35"
   style="fill:#8d2e2e;fill-opacity:1" />
		<rect
   x="25.9"
   y="27"
   width="0.40000001"
   height="7.3000002"
   id="rect37"
   style="fill:#b2b2b2;fill-opacity:1" />
	</g>
	<g
   id="g43"
   style="fill:#8d2e2e;fill-opacity:1">
		<circle
   cx="26.1"
   cy="15.9"
   r="2.8"
   id="circle41"
   style="fill:#4d5268;fill-opacity:1" />
	</g>
	<circle
   cx="17.9"
   cy="15"
   r="1.8"
   id="circle45"
   style="fill:#b2b2b2;fill-opacity:1" />
	<circle
   cx="26.1"
   cy="8.6999998"
   r="1.8"
   id="circle47"
   style="fill:#8d2e2e;fill-opacity:1" />
	<g
   id="g51"
   style="fill:#8d2e2e;fill-opacity:1">
		<circle
   cx="26.1"
   cy="27"
   r="2.8"
   id="circle49"
   style="fill:#4d5268;fill-opacity:1" />
	</g>
	<g
   id="g55"
   style="fill:#8d2e2e;fill-opacity:1">
		<circle
   cx="19.4"
   cy="21.5"
   r="2.8"
   id="circle53"
   style="fill:#e30512;fill-opacity:1" />
	</g>
	<circle
   cx="17.9"
   cy="27.799999"
   r="1.8"
   id="circle57"
   style="fill:#b2b2b2;fill-opacity:1" />
	<circle
   cx="9.8000002"
   cy="21.5"
   r="1.8"
   id="circle59"
   style="fill:#5ab8c2;fill-opacity:1" />
	<circle
   cx="26.1"
   cy="34.200001"
   r="1.8"
   id="circle61"
   style="fill:#8d2e2e;fill-opacity:1" />
	<circle
   cx="34.200001"
   cy="15"
   r="1.8"
   id="circle63"
   style="fill:#b2b2b2;fill-opacity:1" />
	<circle
   cx="26.1"
   cy="8.6999998"
   r="1.8"
   id="circle65"
   style="fill:#5ab8c2;fill-opacity:1" />
	<g
   id="g69"
   style="fill:#8d2e2e;fill-opacity:1">
		<circle
   cx="32.700001"
   cy="21.5"
   r="2.8"
   id="circle67"
   style="fill:#e30512;fill-opacity:1" />
	</g>
	<circle
   cx="34.200001"
   cy="27.799999"
   r="1.8"
   id="circle71"
   style="fill:#b2b2b2;fill-opacity:1" />
	<circle
   cx="42.299999"
   cy="21.5"
   r="1.8"
   id="circle73"
   style="fill:#5ab8c2;fill-opacity:1" />
	<circle
   cx="26.1"
   cy="34.200001"
   r="1.8"
   id="circle75"
   style="fill:#5ab8c2;fill-opacity:1" />
</g>
<g
   aria-label="MESURE"
   transform="matrix(0.99624645,0,0,1.0037677,14.576484,5.4800781)"
   style="font-style:normal;font-variant:normal;font-weight:normal;font-stretch:normal;font-size:33.45892334px;line-height:1.25;font-family:'Alte Haas Grotesk';-inkscape-font-specification:'Alte Haas Grotesk';letter-spacing:0px;word-spacing:20.07535362px;fill:#4d5268;fill-opacity:1;stroke:none;stroke-width:1.00376773"
   id="text851"><path
     style="letter-spacing:0px;word-spacing:50.18838501px;fill:#4d5268;fill-opacity:1;stroke-width:1.01696634"
     d="m 92.584824,4.4601447 5.731775,0.00732 c 0.447451,5.712e-4 0.932208,0.050095 1.224045,0.9964555 l 4.964096,14.1215958 c 0.16464,0.556377 0.74329,0.585004 0.92839,-0.01101 l 4.68462,-14.1105888 c 0.29476,-1.0596116 0.85783,-0.9964525 1.25604,-0.9964525 h 5.74833 c 0.45815,0 0.84361,0.2714531 0.84337,0.8726678 l -0.009,22.0865135 c -2e-4,0.497018 -0.18636,0.856264 -0.99516,0.856264 h -3.01411 c -0.53137,0 -0.9261,-0.238399 -0.92772,-0.856264 l -0.0343,-13.055181 c -0.004,-1.470235 -0.46531,-1.734553 -0.96816,-0.515513 l -4.71429,13.273569 c -0.30777,0.736093 -0.3224,1.086334 -1.28911,1.171949 h -2.3323 c -0.96811,-0.06227 -1.122,-0.497465 -1.40308,-1.239327 L 97.48839,13.811916 c -0.290901,-0.951575 -0.799943,-1.03882 -0.885139,0.559541 v 13.141886 c -0.0044,0.536036 -0.404797,0.73174 -0.776932,0.76723 h -3.438001 c -0.449185,-0.06344 -0.755007,-0.287184 -0.765374,-0.941547 0.0057,-6.86339 -0.01144,-15.0036 0.0086,-21.8667531 -0.04836,-0.6389826 0.338157,-1.0013454 0.952873,-1.0048113 z"
     id="path853"
     inkscape:connector-curvature="0"
     sodipodi:nodetypes="csccccsssssssscccccccccccccc" /><path
     style="letter-spacing:0px;word-spacing:50.18838501px;fill:#4d5268;fill-opacity:1;stroke-width:1.00376773"
     d="m 122.81526,4.4768751 16.02037,0.00836 c 0.84893,-0.032798 0.91226,0.717345 0.88854,1.4052748 v 1.665084 c 0.005,0.7775975 -0.15309,1.2408411 -0.88854,1.2752348 -3.59964,0.00284 -7.50238,-0.022715 -10.65864,0.012432 -0.89909,0.063238 -1.00023,0.3056927 -1.06234,0.8993404 v 3.3951449 c 0.084,0.695056 0.41419,0.89346 1.10338,0.884328 h 9.58259 c 0.61331,-0.0045 0.87252,0.404988 0.87252,0.900788 v 2.282512 c -0.0249,0.397077 -0.21305,0.784636 -0.65922,0.815054 h -9.87665 c -0.81434,0.09224 -1.07179,0.451004 -1.03393,1.146641 v 3.903715 c 0.10116,0.672588 0.40419,0.854347 1.11208,0.879208 l 10.96471,0.0063 c 0.69805,0.08969 0.77805,0.461172 0.79557,1.037378 v 2.415905 c -0.0207,0.647479 -0.36798,0.842608 -0.79557,0.890104 l -16.23948,-0.0084 c -0.86696,0.159751 -1.1352,-0.727411 -1.02886,-1.40031 l 0.008,-21.7198102 c 0.0464,-0.4644982 0.48727,-0.6834628 0.89515,-0.6942727 z"
     id="path855"
     inkscape:connector-curvature="0"
     sodipodi:nodetypes="ccccccccccsccccccccccccccc" /><path
     style="letter-spacing:0px;word-spacing:50.18838501px;fill:#4d5268;fill-opacity:1;stroke-width:1.00376773"
     d="m 151.47073,3.9260456 c 4.95726,-0.1093997 9.22314,1.8256603 9.8474,6.5598124 0.054,0.926706 -0.33544,1.068384 -1.15312,1.068823 l -2.86393,-8.78e-4 c -0.51015,-0.03302 -0.82963,-0.09751 -1.01016,-0.721381 -0.88222,-3.160714 -4.18261,-2.9808849 -5.57088,-2.8390269 -2.84918,0.2921701 -3.93272,3.7587309 -1.04564,4.7658049 2.81396,1.122398 5.91462,1.45754 8.5064,2.491126 4.01911,1.866714 4.87678,5.831471 3.18539,9.383626 -2.70789,6.136701 -18.8457,6.177696 -19.19697,-3.50561 0.0879,-0.522013 0.46356,-0.700667 1.02654,-0.707049 l 3.13956,-8.05e-4 c 1.33991,0.185124 0.36505,1.277226 2.09274,3.093664 1.84591,1.832546 6.90547,1.918803 8.29572,-0.349226 0.65045,-0.999086 0.43414,-2.383772 -0.4977,-3.136774 -3.04956,-1.884224 -7.20372,-1.95981 -9.94409,-3.489143 -1.64191,-0.857358 -2.98311,-2.407775 -3.2429,-4.281697 -0.70722,-5.1479874 3.46558,-8.2234622 8.43164,-8.3312664 z"
     id="path857"
     inkscape:connector-curvature="0"
     sodipodi:nodetypes="cccccccccccccccccc" /><path
     style="letter-spacing:0px;word-spacing:50.18838501px;fill:#4d5268;fill-opacity:1;stroke-width:1.00376773"
     d="m 166.10692,4.2141106 3.38092,0.010864 c 0.59799,-0.016212 0.89298,0.3294895 0.89346,0.7754589 V 19.461153 c 0,2.360209 0.91967,4.828315 4.96732,4.828315 4.11712,0 4.96731,-2.297958 4.96731,-4.828315 V 5.0870252 c 4.5e-4,-0.7180787 0.44778,-0.869963 1.14735,-0.8709374 h 3.10553 c 0.50041,0.022102 0.92929,0.2213079 0.92929,0.8709374 V 19.461153 c 0,4.746881 -2.37555,9.085728 -10.14865,9.085728 -7.67046,0 -10.14081,-4.177555 -10.14081,-9.085728 V 5.0004333 c -0.0114,-0.5548962 0.46951,-0.7793776 0.89817,-0.7754589 z"
     id="path859"
     inkscape:connector-curvature="0"
     sodipodi:nodetypes="cccssscccscscccc" /><path
     style="letter-spacing:0px;word-spacing:50.18838501px;fill:#4d5268;fill-opacity:1;stroke-width:1.00376773"
     d="m 210.18017,27.546804 c 0.1302,0.763682 -0.58748,0.749031 -0.78977,0.746008 h -3.32291 c -0.98414,-0.188423 -0.97797,-0.844274 -1.24083,-2.954299 -0.29462,-4.621011 -0.8968,-6.125812 -3.76442,-6.366013 l -4.65671,-0.02464 c -1.03568,0.07587 -1.20039,0.567507 -1.13965,1.428953 v 7.221185 c -0.069,0.62076 -0.55702,0.699049 -1.02599,0.699599 h -3.26564 c -0.47732,1.07e-4 -0.90504,-0.298811 -0.90287,-0.777433 l -0.008,-22.2312765 c -0.0104,-0.4447869 0.34901,-0.7928316 0.83018,-0.8193278 h 12.25642 c 6.78954,-0.045587 9.12973,8.3012043 4.23461,11.8517783 -1.21436,0.902367 -0.31406,0.996344 0.18925,1.473217 2.87677,2.679598 1.51824,6.024796 2.60673,9.752251 z m -5.49855,-15.692236 c 0,-3.0385337 -2.16929,-3.3120562 -3.78636,-3.37935 h -4.66742 c -0.57487,0.033228 -0.95376,0.2618289 -0.93681,0.9755171 l 0.0418,5.1725599 c 0.16988,0.54218 0.39185,0.571969 1.22987,0.644084 l 4.72892,-0.03346 c 1.38254,0 3.39,-0.490767 3.39,-3.379351 z"
     id="path861"
     inkscape:connector-curvature="0"
     sodipodi:nodetypes="ccccccccccccccccccsccccccs" /><path
     style="letter-spacing:0px;word-spacing:50.18838501px;fill:#4d5268;fill-opacity:1;stroke-width:1.00376773"
     d="m 214.93224,4.4768752 15.81771,0.00836 c 0.93765,-0.016286 1.06627,0.3210903 1.07582,1.141105 v 2.4143111 c -0.0455,0.4441195 -0.26078,0.7780301 -0.8058,0.7858792 l -10.73154,0.01673 c -1.00696,0.079129 -1.05004,0.4754409 -1.06621,1.074272 l 0.0499,3.1134125 c 0.0126,0.953969 0.42447,0.950457 1.18614,0.991129 h 9.45934 c 0.74133,0.01018 0.89021,0.425419 0.87453,1.121916 v 1.957983 c 0,0.587589 -0.31868,0.891214 -0.66123,0.926238 h -9.87665 c -0.57726,0.03492 -1.05626,0.352213 -1.03204,0.960743 v 4.080637 c 0.0406,0.781159 0.62879,0.858765 1.14384,0.880401 l 10.92335,0.0063 c 0.51189,0.03975 0.78967,0.306131 0.79935,0.975733 v 2.468155 c 0.007,0.655264 -0.33674,0.890611 -0.91333,0.895299 h -16.1178 c -0.60425,-0.0037 -0.95477,-0.171223 -1.02486,-0.774073 V 5.1711586 c 0.0463,-0.464493 0.49126,-0.6834649 0.89914,-0.6942727 z"
     id="path863"
     inkscape:connector-curvature="0"
     sodipodi:nodetypes="cccccccccccscccccccccccccc" /></g><g
   id="g19"
   transform="translate(8.576484,0.58007816)">
	<path
   d="m 73.6,13 c -2.7,-2.9 -6.1,-4.5 -10,-4.5 -7.1,0 -13,5.9 -13,12.9 0,6.9 6,12.9 12.9,12.9 H 64 c 3.6,0 6.9,-1.5 9.4,-4.3 l 0.2,-0.2 v -5 l -1.2,1.7 c -2.1,3.1 -5.4,5 -8.8,5 -1.9,0 -4,-0.8 -5.9,-2.1 L 74,13.4 Z m -10,-1.8 c 2.1,0 4.4,0.8 6.2,2.2 L 55.7,27.5 c -1.3,-1.7 -2.2,-4.1 -2.2,-6.1 0,-5.5 4.7,-10.2 10.1,-10.2 z"
   id="path3"
   style="fill:#e30512;fill-opacity:1"
   inkscape:connector-curvature="0" />
	<polygon
   points="80.3,31 93.7,9 77,9 77,11.8 88.4,11.8 75.1,33.8 93,33.8 93,31 "
   id="polygon5"
   style="fill:#e30512;fill-opacity:1" />
	
	
	
	
	
	
</g></svg>